<svg class="block h-[24px] w-auto group-hover:opacity-80 transition-opacity duration-300" fill="none" viewBox="0 0 600.092 106.265"><path d="M50.4962 81.7827L61.8196 89.0282C55.7046 99.899 45.0325 105.85 32.7977 105.85C14.9691 105.85 0 91.4885 0 72.8489C0 54.2092 14.9639 39.8527 32.5373 39.8527C51.2774 39.8527 64.4233 54.4733 63.7725 76.6038H14.4431C16.0056 86.5684 23.6828 92.778 32.7925 92.778C41.9022 92.778 46.4596 88.7644 50.4909 81.7775L50.4962 81.7827ZM15.0941 66.1264H48.5378C47.4961 59.0103 41.9022 52.7953 32.5321 52.7953C24.3339 52.7953 17.5682 57.9693 15.0941 66.1264Z" fill="#ffffff"></path><path d="M70.6626 88.6446L83.939 83.8544C85.8925 89.8048 90.1844 93.9483 96.4344 93.9483C101.122 93.9483 105.414 91.0999 105.414 85.9261C105.414 74.1485 74.4389 82.0413 74.4389 59.5281C74.4389 48.657 83.6788 39.8577 96.6945 39.8577C107.757 39.8577 115.956 46.0674 118.69 54.8667L105.283 59.0102C103.851 54.2245 100.726 51.7645 96.1737 51.7645C92.1372 51.7645 88.757 54.3541 88.757 58.4923C88.757 69.7514 119.992 61.9879 119.992 85.0196C119.992 97.1853 108.799 105.855 96.0487 105.855C84.2049 105.855 73.6629 99.1271 70.6735 88.6446H70.6626Z" fill="#ffffff"></path><path d="M127.405 41.4109H136.384V19.7986H151.738V41.4109H164.494V54.742H151.738V104.306H136.384V54.742H127.405V41.4109Z" fill="#ffffff"></path><path d="M251.037 41.4109H260.017V19.7986H275.371V41.4109H288.126V54.742H275.371V104.306H260.017V54.742H251.037V41.4109Z" fill="#ffffff"></path><path d="M344.606 81.7826L355.929 89.0281C349.815 99.8989 339.142 105.85 326.908 105.85C309.079 105.85 294.115 91.4884 294.115 72.8488C294.115 54.2091 309.079 39.8526 326.653 39.8526C345.393 39.8526 358.539 54.4732 357.888 76.6037H308.564C310.126 86.5683 317.804 92.7779 326.913 92.7779C336.022 92.7779 340.58 88.7642 344.612 81.7774L344.606 81.7826ZM309.209 66.1263H342.653C341.612 59.0102 336.017 52.7951 326.648 52.7951C318.449 52.7951 311.684 57.9692 309.209 66.1263Z" fill="#ffffff"></path><path d="M418.937 49.0461C408.525 49.0461 400.978 57.457 400.978 69.364V104.302H392.91V0H400.978V54.3495C404.625 47.2334 411.781 41.9249 421.671 41.9249C435.599 41.9249 443.276 51.7599 443.276 63.5373V104.302H435.208V65.4792C435.208 55.5148 429.223 49.0461 418.942 49.0461H418.937Z" fill="#ffffff"></path><path d="M506.652 79.9764V43.4843H514.719V80.8824C514.719 96.0213 504.048 105.856 489.864 105.856C475.682 105.856 465.009 96.0213 465.009 80.753V43.4843H473.077V79.9764C473.077 91.8828 479.844 98.4811 489.864 98.4811C499.885 98.4811 506.652 91.8828 506.652 79.9764Z" fill="#ffffff"></path><path d="M544.913 56.8097C549.079 47.8808 558.841 41.93 569.117 41.93C586.554 41.93 600.092 56.1622 600.092 73.8956C600.092 91.6287 586.554 105.861 569.117 105.861C558.835 105.861 549.074 99.7808 544.913 90.9814V104.312H536.846V0H544.913V56.8097ZM568.21 49.4346C554.934 49.4346 544.392 60.0467 544.392 73.8905C544.392 87.7342 554.934 98.3461 568.21 98.3461C581.487 98.3461 592.156 87.7342 592.156 73.8905C592.156 60.0467 581.744 49.4346 568.21 49.4346Z" fill="#ffffff"></path><path d="M238.531 41.4016V97.9624L223.006 104.691V53.9143H177.937L186.577 41.4016H238.531Z" fill="#ffffff"></path><path d="M217.843 84.4032C217.843 96.4758 207.854 106.265 195.53 106.265C183.207 106.265 173.217 96.4758 173.217 84.4032C173.217 72.3311 183.207 62.5424 195.53 62.5424C207.854 62.5424 217.843 72.3311 217.843 84.4032ZM205.572 84.398C205.572 78.9599 201.072 74.5526 195.52 74.5526C189.968 74.5526 185.468 78.9599 185.468 84.398C185.468 89.8361 189.968 94.2434 195.52 94.2434C201.072 94.2434 205.572 89.8361 205.572 84.398Z" fill="#ffffff"></path></svg>